# xmcd CD database file
#
# Track frame offsets:
#	150
#	13633
#	25928
#	39146
#	52963
#	66777
#	78737
#	92773
#	106785
#	119313
#	131981
#	146241
#	158214
#	172752
#	186972
#	200363
#	214167
#
# Disc length: 3016 seconds
#
# Revision: 1
# Processed by: cddbd v1.5.2PL0 Copyright (c) Steve Scherf et al.
# Submitted via: CDex 1.70beta2
#
DISCID=e70bc611
DTITLE=Kokoms Arnold - The Ultimate Jazz Archive Set 12
DYEAR=2005
DGENRE=Blues
TTITLE0=Try Some Of That
TTITLE1=Mister Charlie
TTITLE2=Cutter Blues
TTITLE3=Money True Man
TTITLE4=Delmar Avenue
TTITLE5=Shake That Thing
TTITLE6=Backfence Picket Blues
TTITLE7=Fool Man Blues
TTITLE8=Long And Tall
TTITLE9=Sally Dog
TTITLE10=Cold Winter Blues
TTITLE11=Sister Jane Cross The Hall
TTITLE12=Wild Water Blues
TTITLE13=Laugh And Grin Blus
TTITLE14=Mean Old Twister
TTITLE15=Red Beams And Rice
TTITLE16=Set Down Gal
EXTD=YEAR: 2005
EXTT0=
EXTT1=
EXTT2=
EXTT3=
EXTT4=
EXTT5=
EXTT6=
EXTT7=
EXTT8=
EXTT9=
EXTT10=
EXTT11=
EXTT12=
EXTT13=
EXTT14=
EXTT15=
EXTT16=
PLAYORDER=
